<svg width="80" height="32" viewBox="0 0 80 32" fill="#495057" xmlns="http://www.w3.org/2000/svg" class="icon layout-menu-header__logo-icon"><path d="M59.6077 0H57.2549V32H59.6077V0Z"></path> <path d="M73.7258 0H71.373V32H73.7258V0Z"></path> <path d="M79.9993 0H77.6465V32H79.9993V0Z"></path> <path d="M58.0391 2.2856V0H66.6663V2.2856H58.0391Z"></path> <path d="M71.373 31.9995V29.7139H79.9994V31.9995H71.373Z"></path> <path d="M2.3528 0H0V25.9048H2.3528V0Z"></path> <path d="M8.62819 0H6.27539V32H8.62819V0Z"></path> <path d="M16.47 0H14.1172V32H16.47V0Z"></path> <path d="M22.7454 0H20.3926V32H22.7454V0Z"></path> <path d="M30.589 0H28.2402V32H30.593L30.589 0Z"></path> <path d="M51.7649 0H49.4121V32H51.7649V0Z"></path> <path d="M36.8626 9.90625H34.5098V32.0014H36.8626V9.90625Z"></path> <path d="M44.7063 9.90625H42.3535V32.0014H44.7063V9.90625Z"></path> <path d="M0 2.2856V0H8.6272V2.2856H0Z"></path> <path d="M14.1172 2.2856V0H22.7452V2.2856H14.1172Z"></path> <path d="M28.2402 12.1919V9.90625H36.8634V12.1919H28.2402Z"></path> <path d="M43.1377 12.1919V9.90625H51.7649V12.1919H43.1377Z"></path> <path d="M43.1377 31.9995V29.7139H51.7649V31.9995H43.1377Z"></path> <path d="M43.1377 2.2856V0H51.7649V2.2856H43.1377Z"></path> <path d="M14.1172 31.9995V29.7139H22.7452V31.9995H14.1172Z"></path> <path d="M0 31.9995V29.7139H8.6272V31.9995H0Z"></path> <path d="M0 25.9047V23.6191H8.6272V25.9047H0Z"></path></svg>