<svg xmlns="http://www.w3.org/2000/svg" width="176" height="26" fill="none"><g fill="#fc8507"><path fill-rule="evenodd" d="M27.438 13c0-1.744-.691-3.384-1.945-4.618S22.569 6.47 20.795 6.47H6.583V13v6.53h14.212c1.774 0 3.443-.68 4.697-1.913A6.43 6.43 0 0 0 27.438 13zm6.58 0c0 7.18-5.921 13-13.224 13H5.376 2.41 0V13 0h20.793c7.304 0 13.224 5.82 13.224 13zM63.012 0h6.551v22.765a3.22 3.22 0 0 1-2.022 2.975c-.405.165-.831.245-1.253.245a3.3 3.3 0 0 1-2.316-.943L42.126 9.52V26h-6.55V3.235A3.22 3.22 0 0 1 37.598.26c1.224-.498 2.633-.223 3.569.698L63.012 16.48V0z"/><path d="M102.789 12.151c-.756-.743-1.637-1.327-2.62-1.735a8.31 8.31 0 0 0-3.209-.638l-17.497.01c-.935 0-1.696-.748-1.696-1.667s.761-1.667 1.696-1.667h20.738c1.809 0 3.276-1.442 3.276-3.22s-1.467-3.22-3.276-3.22H79.463a8.32 8.32 0 0 0-3.211.639c-.982.408-1.864.992-2.62 1.736s-1.35 1.61-1.766 2.576a7.94 7.94 0 0 0-.65 3.156 7.94 7.94 0 0 0 .65 3.156c.415.966 1.01 1.832 1.766 2.576a8.23 8.23 0 0 0 2.62 1.736 8.32 8.32 0 0 0 3.211.638l17.497-.011c.934 0 1.693.746 1.693 1.664s-.76 1.665-1.693 1.665H74.492c-1.809 0-3.275 1.441-3.275 3.22s1.467 3.22 3.275 3.22H96.96a8.31 8.31 0 0 0 3.209-.638c.983-.408 1.864-.992 2.62-1.735a8.06 8.06 0 0 0 1.765-2.575c.431-1.001.649-2.063.649-3.155s-.218-2.154-.649-3.156a8.06 8.06 0 0 0-1.765-2.575z"/></g><path d="M171.338 0h-52.834c-2.575 0-4.662 2.054-4.662 4.588v16.824c0 2.534 2.087 4.588 4.662 4.588h52.834c2.575 0 4.662-2.054 4.662-4.588V4.588C176 2.054 173.913 0 171.338 0z" fill="#333"/><path fill-rule="evenodd" d="M120.897 18.671V8.063c0-.385.131-.697.392-.954.261-.275.596-.404 1.007-.404s.745.128 1.006.367.392.569.392.991v3.964l4.587-4.808c.131-.147.28-.257.429-.349.205-.11.41-.165.653-.165.373 0 .69.128.951.367a1.24 1.24 0 0 1 .429.954c0 .385-.299.863-.914 1.468l-3.524 3.414 4.307 4.423c.522.532.783 1.009.783 1.395a1.15 1.15 0 0 1-.447.954c-.261.202-.597.312-1.007.312-.392 0-.876-.294-1.417-.863l-4.83-5.139v4.68a1.26 1.26 0 0 1-.392.936c-.261.257-.596.385-1.006.385s-.746-.128-1.007-.367-.392-.551-.392-.954zm24.397-10.425v10.314c0 .459-.131.808-.392 1.064-.261.239-.596.367-1.007.367s-.746-.128-1.007-.367c-.261-.257-.391-.606-.391-1.064V9.238h-3.692v4.111c0 2.625-.69 4.515-2.089 5.708-.746.624-1.492.936-2.219.936-.429 0-.746-.128-.97-.404a1.25 1.25 0 0 1-.298-.863c0-.532.354-.973 1.044-1.285.467-.202.858-.587 1.175-1.138.373-.642.56-1.45.56-2.404V8.246c0-.44.13-.789.41-1.064.242-.239.578-.367.988-.367h6.489c.411 0 .746.128.989.367.279.275.41.624.41 1.064zm12.22.404l-4.904 10.535c-.261.532-.653.808-1.194.808a1.59 1.59 0 0 1-1.025-.367c-.317-.257-.466-.569-.466-.954 0-.184.056-.386.149-.624l1.081-2.331-3.468-7.048c-.093-.202-.149-.404-.149-.642 0-.367.149-.679.466-.954a1.59 1.59 0 0 1 1.026-.367c.54 0 .932.275 1.193.808l2.462 4.937 2.293-4.937c.243-.532.653-.808 1.231-.808a1.58 1.58 0 0 1 1.007.367 1.2 1.2 0 0 1 .447.954c0 .184-.056.385-.149.624zm5.358 5.763v3.047h2.201c.522 0 .932-.147 1.249-.422.336-.275.503-.679.503-1.175 0-.973-.652-1.45-1.976-1.45h-1.977zm5.669 4.441c-.765.679-1.809 1.028-3.133 1.028h-3.841c-.429 0-.783-.128-1.063-.367-.28-.257-.429-.606-.429-1.028V8.191c0-.422.131-.771.41-1.028.28-.239.634-.349 1.063-.349h5.557c.429 0 .765.128 1.007.385a1.31 1.31 0 0 1 .317.881c0 .349-.112.624-.336.863-.242.275-.578.404-.988.404h-4.233v2.643h2.201c1.435 0 2.536.312 3.337.918.877.679 1.324 1.67 1.324 2.992 0 1.266-.391 2.257-1.193 2.955z" fill="#fff"/></svg>
