<svg class="hover:-rotate-1 hover:scale-110 w-logo-main h-10" width="1024" height="390" viewBox="0 0 1024 390" fill="none" xmlns="http://www.w3.org/2000/svg"> <g clip-path="url(#clip0_853_1652)"> <path d="M-0.264648 102.295C-0.264648 66.5222 -0.264648 48.5597 6.73446 34.8595C12.8206 22.8337 22.5585 13.0913 34.4266 7.00234C48.1205 0 65.9226 0 101.527 0H921.792C957.396 0 975.198 0 988.892 7.00234C1000.91 13.0913 1010.65 22.9859 1016.74 35.0117C1023.74 48.7119 1023.74 66.5222 1023.74 102.447V287.553C1023.74 323.326 1023.74 341.288 1016.74 354.988C1010.65 367.014 1000.91 376.756 988.892 382.998C975.198 390 957.396 390 921.792 390H101.527C65.9226 390 48.1205 390 34.4266 382.998C22.4064 376.909 12.6685 367.014 6.58231 354.988C-0.264648 341.136 -0.264648 323.173 -0.264648 287.4V102.295Z" fill="#01A42E"></path> <path d="M412.379 116.398H448.44V242.535H526.343V271.9H412.379V116.398Z" fill="white"></path> <path d="M546.427 116.398H582.487V271.9H546.427V116.398Z" fill="white"></path> <path d="M767.963 116.398L700.711 271.9H665.107L598.007 116.398H636.806L684.126 227.471L732.055 116.398H767.963Z" fill="white"></path> <path d="M901.251 243.143V272.053H780.896V116.398H898.36V145.308H816.653V179.086H888.774V207.083H816.653V243.143H901.251Z" fill="white"></path> <path d="M165.965 108.55V164.596H186.259V181.147H125V164.596H145.42V108.55H126.253V92H185.007V108.55H165.965Z" fill="white"></path> <path d="M272.198 181.147L250.776 150.177L229.605 181.147H205.928L238.875 135.758L207.556 92H230.983L251.528 120.963L271.572 92H293.871L262.802 135.006L296 181.147H272.198Z" fill="white"></path> <path d="M206.679 272.676C206.679 288.098 194.527 297 171.101 297H125V207.854H168.47C190.769 207.854 202.169 217.132 202.169 231.049C202.169 239.951 197.659 246.847 190.393 250.609C200.29 253.869 206.679 261.517 206.679 272.676ZM145.545 244.34H165.965C175.987 244.34 181.499 240.829 181.499 233.808C181.499 226.786 175.987 223.401 165.965 223.401H145.545V244.34ZM185.883 270.545C185.883 263.022 180.121 259.511 169.473 259.511H145.545V281.453H169.598C180.246 281.453 185.883 278.193 185.883 270.545Z" fill="white"></path> <path d="M222.714 224.655V207.854H293.745V224.655H268.564V297H248.019V224.655H222.714Z" fill="white"></path> </g> <defs> <clipPath id="clip0_853_1652"> <rect width="1024" height="390" fill="white"></rect> </clipPath> </defs> </svg>